<svg xmlns="http://www.w3.org/2000/svg" width="230" height="49" viewBox="0 0 230 49" fill="none"><path d="M73.5629 10.4763C76.3529 10.4763 78.4889 10.9723 79.9739 11.9643C81.4569 12.9563 82.1999 14.4973 82.1999 16.5913C82.1999 17.8963 81.9009 18.9543 81.3019 19.7693C80.7029 20.5843 79.8399 21.2223 78.7139 21.6873C79.0889 22.1523 79.4839 22.6853 79.8939 23.2833C80.3049 23.8833 80.7119 24.5083 81.1149 25.1603C81.5169 25.8143 81.9059 26.4923 82.2829 27.1993C82.6579 27.9063 83.0059 28.5993 83.3279 29.2773H78.6499C78.3089 28.6703 77.9629 28.0543 77.6129 27.4273C77.2629 26.8023 76.9039 26.1933 76.5369 25.6033C76.1689 25.0133 75.8049 24.4553 75.4469 23.9273C75.0869 23.4003 74.7269 22.9193 74.3689 22.4913H72.3039V29.2763H68.1189V10.9593C69.0309 10.7793 69.9739 10.6543 70.9489 10.5823C71.9219 10.5113 72.7939 10.4763 73.5629 10.4763ZM73.8039 14.0423C73.4999 14.0423 73.2279 14.0523 72.9869 14.0693C72.7449 14.0873 72.5169 14.1043 72.3019 14.1223V19.1653H73.4829C75.0559 19.1653 76.1819 18.9703 76.8619 18.5753C77.5419 18.1823 77.8819 17.5113 77.8819 16.5633C77.8819 15.6513 77.5359 15.0023 76.8499 14.6183C76.1599 14.2343 75.1459 14.0423 73.8039 14.0423Z" fill="#1B4347"></path><path d="M84.3989 22.3324C84.3989 21.0804 84.5919 19.9844 84.9749 19.0454C85.3599 18.1064 85.8649 17.3244 86.4909 16.6974C87.1169 16.0724 87.8369 15.5974 88.6489 15.2774C89.4629 14.9554 90.3009 14.7954 91.1589 14.7954C93.1609 14.7954 94.7439 15.4064 95.9059 16.6314C97.0679 17.8564 97.6489 19.6584 97.6489 22.0374C97.6489 22.2674 97.6409 22.5234 97.6229 22.8014C97.6049 23.0794 97.5869 23.3224 97.5689 23.5394H88.5029C88.5929 24.3614 88.9759 25.0144 89.6559 25.4964C90.3359 25.9784 91.2479 26.2214 92.3909 26.2214C93.1249 26.2214 93.8439 26.1554 94.5509 26.0204C95.2579 25.8854 95.8339 25.7214 96.2809 25.5244L96.8169 28.7684C96.6009 28.8774 96.3159 28.9854 95.9589 29.0904C95.6019 29.1994 95.2029 29.2914 94.7659 29.3734C94.3279 29.4534 93.8579 29.5194 93.3579 29.5744C92.8559 29.6274 92.3559 29.6544 91.8559 29.6544C90.5849 29.6544 89.4809 29.4664 88.5439 29.0904C87.6049 28.7154 86.8269 28.2014 86.2099 27.5494C85.5929 26.8954 85.1379 26.1234 84.8429 25.2294C84.5479 24.3354 84.3989 23.3694 84.3989 22.3324ZM93.7859 20.8024C93.7669 20.4624 93.7099 20.1324 93.6119 19.8104C93.5129 19.4884 93.3609 19.2034 93.1559 18.9514C92.9499 18.7014 92.6889 18.4964 92.3779 18.3344C92.0649 18.1744 91.6759 18.0944 91.2109 18.0944C90.7659 18.0944 90.3809 18.1704 90.0569 18.3214C89.7369 18.4734 89.4689 18.6754 89.2529 18.9264C89.0389 19.1764 88.8729 19.4674 88.7579 19.7974C88.6409 20.1274 88.5569 20.4634 88.5019 20.8034H93.7859V20.8024Z" fill="#1B4347"></path><path d="M107.304 19.4604H99.5269V23.0814H107.304V19.4604Z" fill="#1B4347"></path><path d="M122.54 25.6835V29.2775H110.121V10.6895H114.307V25.6835H122.54Z" fill="#1B4347"></path><path d="M129.327 11.0914C129.327 11.8254 129.09 12.4024 128.616 12.8214C128.141 13.2414 127.583 13.4524 126.939 13.4524C126.295 13.4524 125.736 13.2414 125.263 12.8214C124.788 12.4014 124.552 11.8254 124.552 11.0914C124.552 10.3594 124.788 9.78242 125.263 9.36142C125.736 8.94342 126.295 8.73242 126.939 8.73242C127.583 8.73242 128.141 8.94342 128.616 9.36142C129.09 9.78342 129.327 10.3594 129.327 11.0914ZM128.951 29.2774H124.955V15.1684H128.951V29.2774Z" fill="#1B4347"></path><path d="M136.133 29.2794C135.218 27.4904 134.288 25.3984 133.346 23.0024C132.405 20.6064 131.511 17.9964 130.668 15.1704H134.905C135.085 15.8674 135.296 16.6234 135.539 17.4364C135.781 18.2504 136.032 19.0734 136.293 19.9034C136.554 20.7354 136.814 21.5464 137.074 22.3334C137.334 23.1204 137.591 23.8354 137.843 24.4784C138.076 23.8354 138.327 23.1214 138.597 22.3334C138.866 21.5464 139.13 20.7354 139.391 19.9034C139.651 19.0734 139.904 18.2514 140.145 17.4364C140.387 16.6244 140.598 15.8684 140.779 15.1704H144.911C144.068 17.9964 143.176 20.6064 142.234 23.0024C141.292 25.3984 140.365 27.4904 139.45 29.2794H136.133Z" fill="#1B4347"></path><path d="M145.983 22.3324C145.983 21.0804 146.175 19.9844 146.56 19.0454C146.944 18.1064 147.449 17.3244 148.075 16.6974C148.701 16.0724 149.421 15.5974 150.234 15.2774C151.047 14.9554 151.884 14.7954 152.743 14.7954C154.745 14.7954 156.328 15.4064 157.49 16.6314C158.652 17.8564 159.233 19.6584 159.233 22.0374C159.233 22.2674 159.225 22.5234 159.207 22.8014C159.189 23.0784 159.171 23.3224 159.153 23.5394H150.087C150.177 24.3614 150.561 25.0144 151.24 25.4964C151.919 25.9784 152.832 26.2214 153.976 26.2214C154.709 26.2214 155.428 26.1554 156.135 26.0204C156.841 25.8854 157.418 25.7214 157.865 25.5244L158.401 28.7684C158.186 28.8774 157.9 28.9854 157.543 29.0904C157.186 29.1994 156.787 29.2914 156.35 29.3734C155.912 29.4534 155.442 29.5194 154.942 29.5744C154.441 29.6274 153.94 29.6544 153.44 29.6544C152.169 29.6544 151.066 29.4664 150.128 29.0904C149.189 28.7154 148.411 28.2014 147.794 27.5494C147.177 26.8954 146.721 26.1234 146.426 25.2294C146.131 24.3354 145.983 23.3694 145.983 22.3324ZM155.371 20.8024C155.353 20.4624 155.295 20.1324 155.197 19.8104C155.099 19.4884 154.946 19.2034 154.741 18.9514C154.535 18.7014 154.275 18.4964 153.963 18.3344C153.651 18.1744 153.261 18.0944 152.796 18.0944C152.351 18.0944 151.965 18.1704 151.643 18.3214C151.322 18.4734 151.053 18.6754 150.838 18.9264C150.624 19.1764 150.458 19.4674 150.342 19.7974C150.226 20.1274 150.142 20.4634 150.087 20.8034H155.371V20.8024Z" fill="#1B4347"></path><path d="M166.368 26.4084C167.101 26.4084 167.62 26.3384 167.924 26.1954C168.228 26.0504 168.38 25.7754 168.38 25.3614C168.38 25.0414 168.183 24.7594 167.79 24.5174C167.396 24.2754 166.798 24.0034 165.993 23.6994C165.366 23.4674 164.799 23.2244 164.289 22.9744C163.78 22.7244 163.347 22.4254 162.988 22.0764C162.631 21.7264 162.353 21.3124 162.157 20.8304C161.96 20.3464 161.862 19.7664 161.862 19.0864C161.862 17.7624 162.353 16.7174 163.337 15.9474C164.32 15.1794 165.671 14.7954 167.389 14.7954C168.246 14.7954 169.069 14.8714 169.856 15.0224C170.642 15.1744 171.268 15.3404 171.733 15.5184L171.036 18.6314C170.571 18.4694 170.066 18.3244 169.52 18.1994C168.975 18.0744 168.363 18.0114 167.683 18.0114C166.431 18.0114 165.806 18.3614 165.806 19.0584C165.806 19.2204 165.832 19.3634 165.887 19.4884C165.94 19.6134 166.047 19.7344 166.207 19.8494C166.368 19.9664 166.587 20.0914 166.864 20.2264C167.141 20.3634 167.495 20.5114 167.924 20.6734C168.8 20.9974 169.525 21.3184 170.098 21.6324C170.669 21.9484 171.12 22.2884 171.452 22.6534C171.783 23.0204 172.015 23.4264 172.149 23.8724C172.283 24.3184 172.35 24.8354 172.35 25.4254C172.35 26.8184 171.828 27.8684 170.781 28.5834C169.735 29.2964 168.256 29.6534 166.343 29.6534C165.091 29.6534 164.049 29.5464 163.218 29.3314C162.386 29.1164 161.81 28.9384 161.488 28.7944L162.159 25.5504C162.839 25.8184 163.536 26.0294 164.251 26.1794C164.964 26.3324 165.671 26.4084 166.368 26.4084Z" fill="#1B4347"></path><path d="M175.192 11.6565L179.189 11.0115V15.1695H183.99V18.4955H179.189V23.4565C179.189 24.2985 179.337 24.9685 179.631 25.4685C179.926 25.9705 180.521 26.2205 181.415 26.2205C181.844 26.2205 182.286 26.1795 182.742 26.0995C183.198 26.0195 183.614 25.9085 183.989 25.7655L184.552 28.8745C184.07 29.0715 183.532 29.2415 182.943 29.3865C182.353 29.5295 181.629 29.5995 180.77 29.5995C179.679 29.5995 178.776 29.4535 178.061 29.1585C177.346 28.8635 176.774 28.4515 176.344 27.9245C175.915 27.3975 175.615 26.7585 175.446 26.0065C175.277 25.2545 175.191 24.4245 175.191 23.5105V11.6565H175.192Z" fill="#1B4347"></path><path d="M199.897 22.1974C199.897 23.3064 199.736 24.3204 199.415 25.2404C199.093 26.1624 198.628 26.9494 198.02 27.6014C197.412 28.2554 196.682 28.7594 195.833 29.1174C194.983 29.4744 194.031 29.6544 192.977 29.6544C191.94 29.6544 190.997 29.4744 190.147 29.1174C189.297 28.7604 188.569 28.2564 187.961 27.6014C187.353 26.9494 186.878 26.1624 186.539 25.2404C186.199 24.3204 186.029 23.3064 186.029 22.1974C186.029 21.0884 186.204 20.0784 186.552 19.1664C186.9 18.2544 187.383 17.4774 188 16.8324C188.617 16.1894 189.35 15.6874 190.199 15.3304C191.048 14.9734 191.973 14.7954 192.975 14.7954C193.995 14.7954 194.928 14.9734 195.778 15.3304C196.628 15.6874 197.356 16.1894 197.965 16.8324C198.572 17.4774 199.046 18.2544 199.386 19.1664C199.726 20.0784 199.897 21.0874 199.897 22.1974ZM195.819 22.1974C195.819 20.9634 195.573 19.9944 195.082 19.2874C194.591 18.5804 193.889 18.2264 192.977 18.2264C192.065 18.2264 191.358 18.5804 190.858 19.2874C190.357 19.9944 190.107 20.9634 190.107 22.1974C190.107 23.4314 190.357 24.4104 190.858 25.1354C191.358 25.8604 192.065 26.2214 192.977 26.2214C193.889 26.2214 194.591 25.8604 195.082 25.1354C195.573 24.4104 195.819 23.4314 195.819 22.1974Z" fill="#1B4347"></path><path d="M202.311 22.2244C202.311 21.2034 202.476 20.2444 202.807 19.3394C203.138 18.4374 203.616 17.6504 204.243 16.9804C204.868 16.3084 205.628 15.7774 206.522 15.3844C207.417 14.9894 208.435 14.7944 209.58 14.7944C210.331 14.7944 211.019 14.8604 211.645 14.9934C212.271 15.1284 212.879 15.3214 213.469 15.5714L212.638 18.7624C212.262 18.6194 211.851 18.4924 211.404 18.3874C210.958 18.2804 210.456 18.2254 209.902 18.2254C208.721 18.2254 207.84 18.5924 207.26 19.3254C206.678 20.0594 206.388 21.0244 206.388 22.2234C206.388 23.4934 206.66 24.4754 207.207 25.1724C207.751 25.8714 208.703 26.2194 210.062 26.2194C210.544 26.2194 211.063 26.1744 211.618 26.0844C212.172 25.9964 212.681 25.8524 213.146 25.6564L213.709 28.9274C213.244 29.1244 212.663 29.2944 211.966 29.4374C211.269 29.5804 210.499 29.6524 209.659 29.6524C208.372 29.6524 207.263 29.4594 206.333 29.0764C205.403 28.6914 204.639 28.1684 204.04 27.5064C203.44 26.8464 203.002 26.0634 202.726 25.1584C202.449 24.2574 202.311 23.2794 202.311 22.2244Z" fill="#1B4347"></path><path d="M220.389 20.2364C220.784 19.8084 221.189 19.3654 221.609 18.9024C222.028 18.4394 222.434 17.9824 222.828 17.5294C223.222 17.0764 223.592 16.6444 223.94 16.2364C224.288 15.8284 224.587 15.4724 224.837 15.1704H229.589C228.641 16.2584 227.716 17.2994 226.813 18.2874C225.911 19.2774 224.922 20.2994 223.849 21.3514C224.386 21.8354 224.94 22.4134 225.512 23.0854C226.084 23.7574 226.639 24.4504 227.175 25.1674C227.712 25.8844 228.203 26.5994 228.651 27.3174C229.097 28.0324 229.473 28.6864 229.777 29.2784H225.182C224.896 28.8114 224.571 28.2964 224.204 27.7314C223.837 27.1664 223.451 26.6024 223.039 26.0384C222.629 25.4744 222.196 24.9314 221.742 24.4114C221.286 23.8914 220.835 23.4524 220.388 23.0934V29.2794H216.392V9.10735L220.388 8.46436V20.2364H220.389Z" fill="#1B4347"></path><path d="M71.0599 44.3104L69.9829 42.7874H69.0189V44.3104H68.2559V39.9414H70.2049C70.4549 39.9414 70.6799 39.9724 70.8819 40.0374C71.0839 40.1024 71.2549 40.1934 71.3939 40.3104C71.5339 40.4294 71.6409 40.5764 71.7159 40.7484C71.7889 40.9224 71.8279 41.1154 71.8279 41.3264C71.8279 41.5104 71.8019 41.6724 71.7499 41.8164C71.6989 41.9614 71.6249 42.0874 71.5349 42.1974C71.4429 42.3064 71.3339 42.4024 71.2069 42.4784C71.0799 42.5544 70.9389 42.6154 70.7849 42.6564L71.9659 44.3104H71.0599ZM70.8099 40.8184C70.6509 40.6954 70.4279 40.6324 70.1399 40.6324H69.0189V42.1074H70.1459C70.4199 42.1074 70.6409 42.0414 70.8029 41.9064C70.9659 41.7734 71.0479 41.5924 71.0479 41.3674C71.0479 41.1254 70.9679 40.9414 70.8099 40.8184Z" fill="#1B4347"></path><path d="M77.567 40.6324H75.094V41.7574H77.285V42.4514H75.094V43.6194H77.598V44.3104H74.332V39.9414H77.567V40.6324Z" fill="#1B4347"></path><path d="M80.764 41.3085C80.793 41.3695 80.846 41.4295 80.923 41.4825C81 41.5375 81.108 41.5865 81.242 41.6325C81.378 41.6795 81.55 41.7265 81.759 41.7755C81.988 41.8345 82.194 41.8985 82.369 41.9705C82.547 42.0405 82.693 42.1265 82.81 42.2285C82.927 42.3305 83.016 42.4495 83.076 42.5835C83.137 42.7205 83.168 42.8785 83.168 43.0625C83.168 43.2715 83.129 43.4555 83.053 43.6195C82.977 43.7815 82.869 43.9185 82.735 44.0315C82.598 44.1425 82.434 44.2285 82.243 44.2875C82.053 44.3465 81.843 44.3735 81.614 44.3735C81.276 44.3735 80.954 44.3165 80.645 44.2015C80.337 44.0885 80.052 43.9125 79.79 43.6765L80.252 43.1255C80.465 43.3095 80.679 43.4495 80.896 43.5455C81.113 43.6455 81.359 43.6935 81.633 43.6935C81.87 43.6935 82.058 43.6425 82.198 43.5435C82.337 43.4435 82.407 43.3095 82.407 43.1395C82.407 43.0595 82.393 42.9895 82.366 42.9265C82.339 42.8635 82.288 42.8075 82.216 42.7525C82.143 42.7015 82.042 42.6525 81.915 42.6075C81.788 42.5605 81.622 42.5135 81.418 42.4625C81.184 42.4075 80.977 42.3495 80.795 42.2805C80.614 42.2145 80.461 42.1305 80.338 42.0305C80.215 41.9325 80.12 41.8115 80.056 41.6695C79.992 41.5285 79.958 41.3555 79.958 41.1515C79.958 40.9585 79.995 40.7865 80.071 40.6285C80.144 40.4745 80.247 40.3395 80.377 40.2285C80.507 40.1155 80.663 40.0295 80.847 39.9685C81.031 39.9075 81.229 39.8765 81.447 39.8765C81.766 39.8765 82.054 39.9255 82.31 40.0175C82.566 40.1115 82.807 40.2475 83.033 40.4275L82.619 41.0075C82.42 40.8625 82.223 40.7495 82.027 40.6735C81.83 40.5975 81.633 40.5585 81.433 40.5585C81.208 40.5585 81.035 40.6095 80.91 40.7105C80.785 40.8145 80.722 40.9375 80.722 41.0815C80.72 41.1695 80.734 41.2465 80.764 41.3085Z" fill="#1B4347"></path><path d="M86.4378 39.9395H85.6758V44.3105H86.4378V39.9395Z" fill="#1B4347"></path><path d="M89.1738 39.9395H89.9378V43.6175H92.2338V44.3105H89.1738V39.9395Z" fill="#1B4347"></path><path d="M95.4061 39.9395H94.6431V44.3105H95.4061V39.9395Z" fill="#1B4347"></path><path d="M101.375 40.6324H98.9021V41.7574H101.094V42.4514H98.9021V43.6194H101.406V44.3104H98.1411V39.9414H101.375V40.6324Z" fill="#1B4347"></path><path d="M106.933 39.9395H107.695V44.3105H107.053L104.648 41.2015V44.3105H103.885V39.9395H104.596L106.933 42.9625V39.9395Z" fill="#1B4347"></path><path d="M112.228 44.3105H111.453V40.6525H110.067V39.9395H113.615V40.6525H112.228V44.3105Z" fill="#1B4347"></path><path d="M122.667 40.6324H120.183V41.8374H122.387V42.5314H120.183V44.3104H119.42V39.9414H122.667V40.6324Z" fill="#1B4347"></path><path d="M128.762 44.3104H127.95L127.507 43.2554H125.441L124.992 44.3104H124.205L126.128 39.9084H126.84L128.762 44.3104ZM126.471 40.8264L125.722 42.5764H127.227L126.471 40.8264Z" fill="#1B4347"></path><path d="M133.875 44.3104L132.798 42.7874H131.834V44.3104H131.071V39.9414H133.02C133.27 39.9414 133.495 39.9724 133.697 40.0374C133.899 40.1024 134.07 40.1934 134.209 40.3104C134.349 40.4294 134.456 40.5764 134.531 40.7484C134.605 40.9224 134.644 41.1154 134.644 41.3264C134.644 41.5104 134.617 41.6724 134.565 41.8164C134.513 41.9604 134.441 42.0874 134.349 42.1974C134.258 42.3064 134.149 42.4024 134.022 42.4784C133.896 42.5544 133.754 42.6154 133.6 42.6564L134.781 44.3104H133.875ZM133.625 40.8184C133.466 40.6954 133.243 40.6324 132.955 40.6324H131.834V42.1074H132.961C133.236 42.1074 133.456 42.0414 133.618 41.9064C133.781 41.7734 133.863 41.5924 133.863 41.3674C133.863 41.1254 133.783 40.9414 133.625 40.8184Z" fill="#1B4347"></path><path d="M139.302 43.2365H139.277L137.91 41.1895V44.3105H137.148V39.9395H137.966L139.296 42.0075L140.626 39.9395H141.444V44.3105H140.682V41.1755L139.302 43.2365Z" fill="#1B4347"></path><path d="M144.934 39.9395H144.171V44.3105H144.934V39.9395Z" fill="#1B4347"></path><path d="M150.716 39.9395H151.478V44.3105H150.836L148.431 41.2015V44.3105H147.668V39.9395H148.379L150.716 42.9625V39.9395Z" fill="#1B4347"></path><path d="M157.7 43.9683C157.568 44.0503 157.428 44.1223 157.275 44.1853C157.122 44.2483 156.96 44.2983 156.785 44.3333C156.61 44.3663 156.428 44.3863 156.235 44.3863C155.894 44.3863 155.584 44.3273 155.305 44.2143C155.026 44.0993 154.787 43.9413 154.589 43.7393C154.392 43.5363 154.238 43.3003 154.13 43.0243C154.023 42.7493 153.969 42.4523 153.969 42.1313C153.969 41.8223 154.024 41.5293 154.134 41.2563C154.244 40.9813 154.399 40.7403 154.599 40.5353C154.799 40.3283 155.037 40.1663 155.314 40.0453C155.591 39.9243 155.894 39.8633 156.222 39.8633C156.414 39.8633 156.588 39.8773 156.743 39.9043C156.899 39.9313 157.044 39.9683 157.179 40.0193C157.311 40.0703 157.437 40.1303 157.556 40.2033C157.674 40.2773 157.789 40.3613 157.902 40.4573L157.416 41.0373C157.332 40.9673 157.247 40.9023 157.16 40.8443C157.072 40.7853 156.98 40.7373 156.885 40.6983C156.789 40.6573 156.685 40.6283 156.57 40.6043C156.456 40.5833 156.33 40.5693 156.193 40.5693C155.993 40.5693 155.806 40.6103 155.633 40.6923C155.46 40.7743 155.311 40.8853 155.184 41.0263C155.057 41.1693 154.957 41.3333 154.884 41.5203C154.811 41.7093 154.775 41.9093 154.775 42.1223C154.775 42.3473 154.81 42.5563 154.881 42.7473C154.951 42.9383 155.054 43.1043 155.184 43.2453C155.315 43.3843 155.472 43.4933 155.652 43.5733C155.834 43.6533 156.037 43.6923 156.262 43.6923C156.47 43.6923 156.663 43.6613 156.846 43.6003C157.026 43.5393 157.183 43.4593 157.316 43.3603V42.5363H156.199V41.8683H158.059V43.7043C157.95 43.7963 157.831 43.8843 157.7 43.9683Z" fill="#1B4347"></path><path d="M164.74 41.3085C164.769 41.3695 164.822 41.4295 164.899 41.4825C164.976 41.5375 165.083 41.5865 165.218 41.6325C165.353 41.6785 165.526 41.7265 165.735 41.7755C165.964 41.8345 166.169 41.8985 166.345 41.9705C166.523 42.0405 166.669 42.1265 166.786 42.2285C166.903 42.3305 166.992 42.4495 167.053 42.5835C167.113 42.7205 167.144 42.8785 167.144 43.0625C167.144 43.2715 167.105 43.4555 167.029 43.6195C166.953 43.7815 166.846 43.9185 166.711 44.0315C166.574 44.1425 166.41 44.2285 166.219 44.2875C166.029 44.3465 165.819 44.3735 165.589 44.3735C165.252 44.3735 164.93 44.3165 164.621 44.2015C164.313 44.0885 164.028 43.9125 163.766 43.6765L164.228 43.1255C164.441 43.3095 164.655 43.4495 164.872 43.5455C165.089 43.6455 165.334 43.6935 165.609 43.6935C165.846 43.6935 166.034 43.6425 166.173 43.5435C166.312 43.4445 166.382 43.3095 166.382 43.1395C166.382 43.0595 166.369 42.9895 166.342 42.9265C166.315 42.8635 166.265 42.8075 166.192 42.7525C166.119 42.7015 166.018 42.6525 165.891 42.6075C165.764 42.5605 165.598 42.5135 165.394 42.4625C165.16 42.4075 164.953 42.3495 164.771 42.2805C164.589 42.2145 164.437 42.1305 164.314 42.0305C164.191 41.9325 164.097 41.8115 164.032 41.6695C163.968 41.5285 163.935 41.3555 163.935 41.1515C163.935 40.9585 163.972 40.7865 164.046 40.6285C164.12 40.4745 164.223 40.3395 164.353 40.2285C164.483 40.1155 164.639 40.0295 164.823 39.9685C165.006 39.9075 165.205 39.8765 165.422 39.8765C165.742 39.8765 166.03 39.9255 166.286 40.0175C166.542 40.1115 166.783 40.2475 167.008 40.4275L166.595 41.0075C166.396 40.8625 166.199 40.7495 166.002 40.6735C165.807 40.5975 165.609 40.5585 165.409 40.5585C165.184 40.5585 165.01 40.6095 164.885 40.7105C164.76 40.8145 164.697 40.9375 164.697 41.0815C164.696 41.1695 164.711 41.2465 164.74 41.3085Z" fill="#1B4347"></path><path d="M171.483 44.3105H170.711V42.5875L168.974 39.9395H169.88L171.103 41.8765L172.339 39.9395H173.22L171.483 42.5685V44.3105Z" fill="#1B4347"></path><path d="M175.924 41.3085C175.953 41.3695 176.006 41.4295 176.083 41.4825C176.16 41.5375 176.267 41.5865 176.403 41.6325C176.538 41.6795 176.71 41.7265 176.919 41.7755C177.148 41.8345 177.353 41.8985 177.529 41.9705C177.707 42.0405 177.853 42.1265 177.97 42.2285C178.087 42.3305 178.176 42.4495 178.237 42.5835C178.297 42.7205 178.328 42.8785 178.328 43.0625C178.328 43.2715 178.289 43.4555 178.213 43.6195C178.137 43.7815 178.03 43.9185 177.895 44.0315C177.758 44.1425 177.594 44.2285 177.404 44.2875C177.213 44.3465 177.003 44.3735 176.773 44.3735C176.436 44.3735 176.114 44.3165 175.805 44.2015C175.497 44.0885 175.212 43.9125 174.95 43.6765L175.412 43.1255C175.625 43.3095 175.839 43.4495 176.056 43.5455C176.273 43.6455 176.518 43.6935 176.793 43.6935C177.03 43.6935 177.218 43.6425 177.357 43.5435C177.496 43.4445 177.566 43.3095 177.566 43.1395C177.566 43.0595 177.553 42.9895 177.526 42.9265C177.499 42.8635 177.449 42.8075 177.376 42.7525C177.303 42.7015 177.202 42.6525 177.075 42.6075C176.948 42.5605 176.782 42.5135 176.578 42.4625C176.344 42.4075 176.137 42.3495 175.955 42.2805C175.773 42.2145 175.621 42.1305 175.498 42.0305C175.375 41.9325 175.281 41.8115 175.216 41.6695C175.152 41.5285 175.119 41.3555 175.119 41.1515C175.119 40.9585 175.156 40.7865 175.23 40.6285C175.304 40.4745 175.407 40.3395 175.537 40.2285C175.667 40.1155 175.823 40.0295 176.007 39.9685C176.19 39.9075 176.389 39.8765 176.606 39.8765C176.926 39.8765 177.214 39.9255 177.47 40.0175C177.726 40.1115 177.967 40.2475 178.192 40.4275L177.78 41.0075C177.58 40.8625 177.383 40.7495 177.186 40.6735C176.991 40.5975 176.793 40.5585 176.593 40.5585C176.368 40.5585 176.194 40.6095 176.069 40.7105C175.944 40.8145 175.881 40.9375 175.881 41.0815C175.88 41.1695 175.895 41.2465 175.924 41.3085Z" fill="#1B4347"></path><path d="M182.548 44.3105H181.774V40.6525H180.388V39.9395H183.935V40.6525H182.548V44.3105Z" fill="#1B4347"></path><path d="M189.542 40.6324H187.069V41.7574H189.261V42.4514H187.069V43.6194H189.573V44.3104H186.307V39.9414H189.542V40.6324Z" fill="#1B4347"></path><path d="M194.206 43.2365H194.182L192.815 41.1895V44.3105H192.052V39.9395H192.87L194.2 42.0075L195.53 39.9395H196.349V44.3105H195.586V41.1755L194.206 43.2365Z" fill="#1B4347"></path><path d="M199.72 41.3085C199.749 41.3695 199.802 41.4295 199.879 41.4825C199.956 41.5375 200.063 41.5865 200.199 41.6325C200.334 41.6795 200.506 41.7265 200.715 41.7755C200.944 41.8345 201.149 41.8985 201.325 41.9705C201.503 42.0405 201.649 42.1265 201.766 42.2285C201.883 42.3305 201.972 42.4495 202.033 42.5835C202.093 42.7205 202.124 42.8785 202.124 43.0625C202.124 43.2715 202.085 43.4555 202.009 43.6195C201.933 43.7815 201.826 43.9185 201.691 44.0315C201.554 44.1425 201.39 44.2285 201.2 44.2875C201.009 44.3465 200.799 44.3735 200.569 44.3735C200.232 44.3735 199.91 44.3165 199.601 44.2015C199.293 44.0885 199.008 43.9125 198.746 43.6765L199.208 43.1255C199.421 43.3095 199.635 43.4495 199.852 43.5455C200.069 43.6455 200.314 43.6935 200.589 43.6935C200.826 43.6935 201.014 43.6425 201.153 43.5435C201.292 43.4445 201.362 43.3095 201.362 43.1395C201.362 43.0595 201.349 42.9895 201.322 42.9265C201.295 42.8635 201.245 42.8075 201.172 42.7525C201.099 42.7015 200.998 42.6525 200.871 42.6075C200.744 42.5605 200.578 42.5135 200.374 42.4625C200.14 42.4075 199.933 42.3495 199.751 42.2805C199.569 42.2145 199.417 42.1305 199.294 42.0305C199.171 41.9325 199.077 41.8115 199.012 41.6695C198.948 41.5285 198.915 41.3555 198.915 41.1515C198.915 40.9585 198.952 40.7865 199.026 40.6285C199.1 40.4745 199.203 40.3395 199.333 40.2285C199.463 40.1155 199.619 40.0295 199.803 39.9685C199.986 39.9075 200.185 39.8765 200.402 39.8765C200.722 39.8765 201.01 39.9255 201.266 40.0175C201.522 40.1115 201.763 40.2475 201.988 40.4275L201.576 41.0075C201.376 40.8625 201.179 40.7495 200.982 40.6735C200.787 40.5975 200.589 40.5585 200.389 40.5585C200.164 40.5585 199.99 40.6095 199.865 40.7105C199.74 40.8145 199.677 40.9375 199.677 41.0815C199.676 41.1695 199.691 41.2465 199.72 41.3085Z" fill="#1B4347"></path><path d="M17.1239 34.4743H7.54189C3.81689 34.4743 0.785889 31.4433 0.785889 27.7163H3.72489C3.72489 29.8233 5.43689 31.5343 7.54189 31.5343H17.1239C19.2289 31.5343 20.9419 29.8233 20.9419 27.7163H23.8809C23.8809 31.4433 20.8499 34.4743 17.1239 34.4743Z" fill="#9BBB3C"></path><path d="M18.2489 36.0173H15.2059L13.0409 45.8313H11.5789L9.46194 36.0173H6.41895L8.98994 47.6193C9.14694 48.2713 9.73895 48.7323 10.4179 48.7323H14.1959C14.8739 48.7323 15.4649 48.2753 15.6239 47.6233L18.2489 36.0173Z" fill="#9BBB3C"></path><path d="M12.3339 9.35547C9.88389 9.35547 7.88989 11.3475 7.88989 13.7985C7.88989 16.2495 9.88389 18.2435 12.3339 18.2435C14.7849 18.2435 16.7779 16.2495 16.7779 13.7985C16.7779 11.3475 14.7849 9.35547 12.3339 9.35547ZM12.3339 15.3045C11.5039 15.3045 10.8289 14.6285 10.8289 13.7985C10.8289 12.9685 11.5039 12.2925 12.3339 12.2925C13.1639 12.2925 13.8399 12.9685 13.8399 13.7985C13.8399 14.6285 13.1639 15.3045 12.3339 15.3045Z" fill="#3E9B46"></path><path d="M24.4559 15.1325V12.1935H22.9029C22.6229 10.3455 21.8739 8.65452 20.7749 7.24252L21.8479 6.17052L19.7699 4.09251L18.6689 5.19251C17.2309 4.13151 15.5239 3.42151 13.6659 3.18851V1.67651H10.7269V3.23151C8.87994 3.51051 7.18794 4.25851 5.77594 5.35851L4.70294 4.28651L2.62594 6.36252L3.72594 7.46452C2.66494 8.90252 1.95394 10.6105 1.72194 12.4685H0.210938V15.4075H1.76394C2.04394 17.2555 2.79194 18.9445 3.89194 20.3565L2.81894 21.4305L4.89694 23.5085L5.99694 22.4065C7.43494 23.4675 9.14194 24.1775 11.0009 24.4105V25.9225H13.9389V24.3695C15.7859 24.0905 17.4779 23.3405 18.8899 22.2405L19.9629 23.3125L22.0409 21.2365L20.9399 20.1345C22.0009 18.6965 22.7119 16.9895 22.9449 15.1325H24.4559ZM20.0979 13.7985C20.0979 18.0815 16.6149 21.5645 12.3329 21.5645C8.05194 21.5645 4.56794 18.0825 4.56794 13.7985C4.56794 9.51752 8.05194 6.03452 12.3329 6.03452C16.6149 6.03552 20.0979 9.51752 20.0979 13.7985Z" fill="#3E9B46"></path><path d="M41.522 37.2224C40.84 37.2224 40.153 37.1244 39.483 36.9234L38.669 36.6794L38.476 35.8534C37.899 33.3904 38.685 30.7874 40.526 29.0584C42.368 27.3294 45.016 26.7084 47.436 27.4374L48.25 27.6814L48.444 28.5094C49.018 30.9704 48.232 33.5734 46.391 35.3024C45.06 36.5524 43.307 37.2224 41.522 37.2224ZM41.228 34.2754C42.378 34.3574 43.526 33.9634 44.379 33.1624C45.233 32.3594 45.701 31.2344 45.69 30.0864C44.545 30.0044 43.392 30.3984 42.538 31.2014C41.684 32.0014 41.217 33.1264 41.228 34.2754Z" fill="#3E9B46"></path><path d="M29.7488 48.6694C29.0668 48.6694 28.3798 48.5714 27.7108 48.3704L26.8968 48.1264L26.7038 47.2984C26.1258 44.8374 26.9118 42.2344 28.7528 40.5054C30.5948 38.7754 33.2438 38.1554 35.6628 38.8824L36.4768 39.1284L36.6698 39.9564C37.2448 42.4174 36.4578 45.0204 34.6178 46.7494C33.2868 48.0004 31.5338 48.6694 29.7488 48.6694ZM29.4548 45.7224C30.6048 45.8024 31.7528 45.4104 32.6058 44.6074H32.6068C33.4608 43.8044 33.9268 42.6814 33.9168 41.5334C32.7698 41.4514 31.6198 41.8444 30.7648 42.6464C29.9108 43.4514 29.4438 44.5744 29.4548 45.7224Z" fill="#3E9B46"></path><path d="M33.6861 37.2854C31.8251 37.2854 30.0031 36.5554 28.6581 35.2094C26.8731 33.4244 26.1681 30.7974 26.8211 28.3544L27.0411 27.5344L27.8621 27.3154C30.3041 26.6634 32.9301 27.3684 34.7161 29.1534C36.5011 30.9364 37.2051 33.5634 36.5531 36.0054L36.3351 36.8274L35.5141 37.0464C34.9111 37.2074 34.2961 37.2854 33.6861 37.2854ZM29.5231 30.0154C29.4771 31.1634 29.9071 32.3024 30.7361 33.1304C31.5651 33.9584 32.6951 34.3964 33.8511 34.3454C33.8971 33.1954 33.4661 32.0584 32.6381 31.2304C31.8101 30.4004 30.6801 29.9744 29.5231 30.0154Z" fill="#3E9B46"></path><path d="M45.4568 48.7323C43.5968 48.7323 41.7748 48.0023 40.4308 46.6563C38.6448 44.8713 37.9408 42.2443 38.5928 39.8013L38.8118 38.9793L39.6338 38.7603C42.0748 38.1103 44.7018 38.8133 46.4868 40.6003C48.2728 42.3853 48.9768 45.0103 48.3248 47.4523L48.1068 48.2743L47.2848 48.4933C46.6818 48.6543 46.0668 48.7323 45.4568 48.7323ZM41.2948 41.4623C41.2478 42.6103 41.6798 43.7493 42.5078 44.5793C43.3368 45.4053 44.4788 45.8433 45.6228 45.7903C45.6688 44.6423 45.2378 43.5053 44.4098 42.6753C43.5818 41.8473 42.4418 41.4103 41.2948 41.4623Z" fill="#3E9B46"></path><path d="M36.106 13.9393C36.106 13.3633 35.67 12.8943 35.132 12.8943C34.594 12.8943 34.158 13.3633 34.158 13.9393C34.158 14.5153 34.594 14.9823 35.132 14.9823C35.67 14.9823 36.106 14.5153 36.106 13.9393Z" fill="#9BBB3C"></path><path d="M45.4669 9.7514L44.6439 9.8354C44.0619 9.8964 43.4159 10.0284 42.7219 10.2334C40.8699 10.7784 39.0159 10.3814 37.1989 9.0654C38.8549 7.3194 39.5609 4.7534 39.0309 2.3174L38.8509 1.4894L38.0919 1.2454C35.8099 0.509398 33.3159 1.1364 31.5809 2.8844C31.2439 3.2244 30.9569 3.6034 30.6969 4.0014H27.4469V6.9404H29.5649C29.4219 7.8604 29.4439 8.8154 29.6489 9.7514L29.8289 10.5774L30.5879 10.8214C31.2189 11.0264 31.8659 11.1244 32.5089 11.1244C33.2559 11.1244 33.9939 10.9834 34.6969 10.7244C37.4499 13.1264 40.4689 13.9454 43.4479 13.0684C43.6789 13.0004 43.9019 12.9414 44.1139 12.8944L45.5289 15.2064C41.9329 21.4014 31.6719 21.5404 27.3289 21.3004V24.2304C28.0629 24.2774 28.6259 24.3144 29.6459 24.3144C35.2959 24.3144 44.5079 23.1874 48.1049 16.3044L48.1419 16.2304C48.1539 16.2054 48.2599 15.9664 48.3839 15.6134L48.6279 14.9164L45.4669 9.7514ZM32.2129 8.1754C32.1979 6.9994 32.6409 5.8474 33.4559 5.0274C34.2719 4.2054 35.3699 3.8004 36.4659 3.8924C36.4799 5.0704 36.0359 6.22039 35.2209 7.04239C34.4069 7.86339 33.3089 8.2634 32.2129 8.1754Z" fill="#9BBB3C"></path></svg>